<svg class="injected-svg partViewerSvgNqp" style="width:100%;height:90vh;" viewBox="-43.00 -36.75 286.00 286.00" preserveAspectRatio="xMidYMid meet" version="1.1" height="200px" width="200px" id="svgMain" xmlns:ip="http://www.iplaser.com/shapeMate" xmlns="http://www.w3.org/2000/svg"><defs xmlns="http://www.w3.org/2000/svg">
<marker id="ArrowEnd-1" viewBox="0 0 10 6" refX="10" refY="3" markerUnits="strokeWidth" markerWidth="10" markerHeight="10" orient="auto"> 
<path class="Dim" d="M 0 0 L 10 3 L 0 6 z"></path>  </marker>
<marker id="ArrowStart-1" viewBox="0 0 10 6" refX="0" refY="3" markerUnits="strokeWidth" markerWidth="10" markerHeight="10" orient="auto"> 
<path class="Dim" d="M 10 0 L 0 3 L 10 6 z"></path>  </marker>
<marker id="HoverArrowEnd-1" viewBox="0 0 10 6" refX="10" refY="3" markerUnits="strokeWidth" markerWidth="10" markerHeight="10" orient="auto"> 
<path class="Dim" d="M 0 0 L 10 3 L 0 6 z"></path>  </marker>
<marker id="HoverArrowStart-1" viewBox="0 0 10 6" refX="0" refY="3" markerUnits="strokeWidth" markerWidth="10" markerHeight="10" orient="auto"> 
<path class="Dim" d="M 10 0 L 0 3 L 10 6 z"></path>  </marker>
<marker id="SelectedArrowEnd" viewBox="0 0 10 6" refX="10" refY="3" markerUnits="strokeWidth" markerWidth="10" markerHeight="10" orient="auto"> 
<path class="Dim selectedDim" d="M 0 0 L 10 3 L 0 6 z"></path>  </marker>
<marker id="SelectedArrowStart" viewBox="0 0 10 6" refX="0" refY="3" markerUnits="strokeWidth" markerWidth="10" markerHeight="10" orient="auto"> 
<path class="Dim selectedDim" d="M 10 0 L 0 3 L 10 6 z"></path>  </marker>
</defs>
<g xmlns="http://www.w3.org/2000/svg" id="all" transform="translate(0,175.00) scale(1,-1) " stroke-width="0.25%" stroke="black" fill="none">
<path fill="#E9E9F0" d="M 0.00 0.00 L 200.00 0.00 L 175.00 100.00 L 150.00 100.00 A50.00,50.00 0  1,0 50.00,100.00  L 25.00 100.00 L 0.00 0.00 "></path>
<circle class="construction" cx="100.00" cy="100.00" r="50.00"></circle>
<g id="engrave" fill="black" stroke="none">
</g>
<g font-size="13.9" fill="black">
<g id="dim_dx" class="Dim" xmlns:ip="http://www.iplaser.com/shapeMate" ip:index="0" fill="" stroke="" stroke-width="0.25%"><line x1="0.00" y1="0.00" x2="0.00" y2="-32.86"></line><line x1="200.00" y1="0.00" x2="200.00" y2="-32.86"></line><line class="arrowHeadStart arrowHeadEnd" x1="0.00" y1="-25.00" x2="200.00" y2="-25.00" marker-start="url(#ArrowStart-1)" marker-end="url(#ArrowEnd-1)"></line><text transform="rotate(0.0000,100.00,-25.00) scale(1,-1) translate(0,63.90)" text-anchor="middle" x="100.00" y="-25.00" dx="1.96" dy="-16.68">A</text>
</g>
<g id="dim_dy" class="Dim" xmlns:ip="http://www.iplaser.com/shapeMate" ip:index="4" fill="" stroke="" stroke-width="0.25%"><line x1="200.00" y1="0.00" x2="232.86" y2="0.00"></line><line x1="175.00" y1="100.00" x2="232.86" y2="100.00"></line><line class="arrowHeadStart arrowHeadEnd" x1="225.00" y1="0.00" x2="225.00" y2="100.00" marker-start="url(#ArrowStart-1)" marker-end="url(#ArrowEnd-1)"></line><text transform="rotate(90.0000,225.00,50.00) scale(1,-1) translate(0,-86.10)" text-anchor="middle" x="225.00" y="50.00" dx="1.96" dy="-16.68">E</text>
</g>
<g id="dim_tdx" class="Dim" xmlns:ip="http://www.iplaser.com/shapeMate" ip:index="1" fill="" stroke="" stroke-width="0.25%"><line x1="25.00" y1="100.00" x2="25.00" y2="132.86"></line><line x1="175.00" y1="100.00" x2="175.00" y2="132.86"></line><line class="arrowHeadStart arrowHeadEnd" x1="25.00" y1="125.00" x2="175.00" y2="125.00" marker-start="url(#ArrowStart-1)" marker-end="url(#ArrowEnd-1)"></line><text transform="rotate(0.0000,100.00,125.00) scale(1,-1) translate(0,-236.10)" text-anchor="middle" x="100.00" y="125.00" dx="1.96" dy="-16.68">B</text>
</g>
<g id="dim_tr" class="Dim" xmlns:ip="http://www.iplaser.com/shapeMate" ip:index="2" fill="" stroke="" stroke-width="0.25%"><line x1="64.64" y1="64.64" x2="100.00" y2="100.00"></line>
<line class="arrowHeadStart" x1="64.64" y1="64.64" x2="36.87" y2="36.87" marker-start="url(#ArrowStart-1)"></line>
<text transform="rotate(45.0000,36.87,36.87) scale(1,-1) translate(0,-59.83)" text-anchor="start" x="36.87" y="36.87" dx="1.96" dy="-16.68">rC</text>
</g>
<g id="dim_tcy" class="Dim" xmlns:ip="http://www.iplaser.com/shapeMate" ip:index="3" fill="" stroke="" stroke-width="0.25%"><line x1="0.00" y1="0.00" x2="-32.86" y2="0.00"></line><line x1="25.00" y1="100.00" x2="-32.86" y2="100.00"></line><line class="arrowHeadStart arrowHeadEnd" x1="-25.00" y1="0.00" x2="-25.00" y2="100.00" marker-start="url(#ArrowStart-1)" marker-end="url(#ArrowEnd-1)"></line><text transform="rotate(90.0000,-25.00,50.00) scale(1,-1) translate(0,-86.10)" text-anchor="middle" x="-25.00" y="50.00" dx="1.96" dy="-16.68">D</text>
</g>
</g>
</g>
</svg>